{
  "accessors": [
    {
      "bufferView": 2,
      "componentType": 5126,
      "count": 5493,
      "max": [
        0.44828298687934875,
        1.0,
        0.37294501066207886
      ],
      "min": [
        -0.311367005109787,
        0.5236740112304688,
        0.11767800152301788
      ],
      "type": "VEC3"
    },
    {
      "bufferView": 2,
      "byteOffset": 65916,
      "componentType": 5126,
      "count": 5493,
      "max": [
        0.99965500831604,
        0.9995793700218201,
        0.99947190284729
      ],
      "min": [
        -0.9999160170555115,
        -0.9255939722061157,
        -0.9992431402206421
      ],
      "type": "VEC3"
    },
    {
      "bufferView": 3,
      "componentType": 5126,
      "count": 5493,
      "max": [
        0.9998372793197632,
        0.9896054267883301,
        0.9996488094329834,
        1.0
      ],
      "min": [
        -0.9999601244926453,
        -0.9963055849075317,
        -0.9997159838676453,
        1.0
      ],
      "type": "VEC4"
    },
    {
      "bufferView": 1,
      "componentType": 5126,
      "count": 5493,
      "max": [
        0.9326599836349487,
        0.9980400204658508
      ],
      "min": [
        0.0019499999471008778,
        0.0019499999471008778
      ],
      "type": "VEC2"
    },
    {
      "bufferView": 0,
      "componentType": 5125,
      "count": 31482,
      "type": "SCALAR"
    },
    {
      "bufferView": 2,
      "byteOffset": 131832,
      "componentType": 5126,
      "count": 1433,
      "max": [
        0.49863401055336,
        0.5597140192985535,
        -0.04625510051846504
      ],
      "min": [
        -0.33531999588012695,
        -0.0027588000521063805,
        -0.29072800278663635
      ],
      "type": "VEC3"
    },
    {
      "bufferView": 2,
      "byteOffset": 149028,
      "componentType": 5126,
      "count": 1433,
      "max": [
        0.9983928799629211,
        0.9825561046600342,
        0.9996273517608643
      ],
      "min": [
        -0.9973797798156738,
        -0.987870991230011,
        -0.9998986124992371
      ],
      "type": "VEC3"
    },
    {
      "bufferView": 3,
      "byteOffset": 87888,
      "componentType": 5126,
      "count": 1433,
      "max": [
        0.998482346534729,
        0.9999756217002869,
        0.9939127564430237,
        1.0
      ],
      "min": [
        -0.9982321858406067,
        -0.6967287659645081,
        -0.9966894388198853,
        1.0
      ],
      "type": "VEC4"
    },
    {
      "bufferView": 1,
      "byteOffset": 43944,
      "componentType": 5126,
      "count": 1433,
      "max": [
        0.482479989528656,
        0.817313015460968
      ],
      "min": [
        0.0019499999471008778,
        0.002139999996870756
      ],
      "type": "VEC2"
    },
    {
      "bufferView": 0,
      "byteOffset": 125928,
      "componentType": 5125,
      "count": 7890,
      "type": "SCALAR"
    },
    {
      "bufferView": 2,
      "byteOffset": 166224,
      "componentType": 5126,
      "count": 5017,
      "max": [
        0.49049198627471924,
        0.9472029805183411,
        0.34160199761390686
      ],
      "min": [
        -0.3924190104007721,
        -0.09485109895467758,
        -0.276185005903244
      ],
      "type": "VEC3"
    },
    {
      "bufferView": 2,
      "byteOffset": 226428,
      "componentType": 5126,
      "count": 5017,
      "max": [
        0.999281644821167,
        0.9975613355636597,
        0.999352753162384
      ],
      "min": [
        -0.9996814727783203,
        -0.9999731183052063,
        -0.9999203681945801
      ],
      "type": "VEC3"
    },
    {
      "bufferView": 3,
      "byteOffset": 110816,
      "componentType": 5126,
      "count": 5017,
      "max": [
        0.9992702603340149,
        0.9991496801376343,
        0.9998683333396912,
        1.0
      ],
      "min": [
        -0.9995308518409729,
        -0.9992971420288086,
        -0.9982305765151978,
        -1.0
      ],
      "type": "VEC4"
    },
    {
      "bufferView": 1,
      "byteOffset": 55408,
      "componentType": 5126,
      "count": 5017,
      "max": [
        0.9980400204658508,
        0.9498299956321716
      ],
      "min": [
        0.0019499999471008778,
        0.0019499999471008778
      ],
      "type": "VEC2"
    },
    {
      "bufferView": 0,
      "byteOffset": 157488,
      "componentType": 5125,
      "count": 27054,
      "type": "SCALAR"
    },
    {
      "bufferView": 2,
      "byteOffset": 286632,
      "componentType": 5126,
      "count": 48090,
      "max": [
        0.5902900099754333,
        0.5304229855537415,
        0.4878630042076111
      ],
      "min": [
        -0.5904979705810547,
        -0.9865260124206543,
        -0.4878630042076111
      ],
      "type": "VEC3"
    },
    {
      "bufferView": 2,
      "byteOffset": 863712,
      "componentType": 5126,
      "count": 48090,
      "max": [
        0.9999402165412903,
        0.9998653531074524,
        0.999995768070221
      ],
      "min": [
        -0.9987556338310242,
        -0.9999969005584717,
        -0.9999790191650391
      ],
      "type": "VEC3"
    },
    {
      "bufferView": 3,
      "byteOffset": 191088,
      "componentType": 5126,
      "count": 48090,
      "max": [
        0.9999616742134094,
        0.9999895691871643,
        0.9999871850013733,
        1.0
      ],
      "min": [
        -0.9999876022338867,
        -0.9998822212219238,
        -0.9999827146530151,
        -1.0
      ],
      "type": "VEC4"
    },
    {
      "bufferView": 1,
      "byteOffset": 95544,
      "componentType": 5126,
      "count": 48090,
      "max": [
        0.9974489808082581,
        0.9980000257492065
      ],
      "min": [
        0.0020000000949949026,
        0.0020000000949949026
      ],
      "type": "VEC2"
    },
    {
      "bufferView": 0,
      "byteOffset": 265704,
      "componentType": 5125,
      "count": 192360,
      "type": "SCALAR"
    },
    {
      "bufferView": 2,
      "byteOffset": 1440792,
      "componentType": 5126,
      "count": 4020,
      "max": [
        0.5904979705810547,
        0.016054600477218628,
        0.48733198642730713
      ],
      "min": [
        -0.5838609933853149,
        -1.0,
        -0.48660099506378174
      ],
      "type": "VEC3"
    },
    {
      "bufferView": 2,
      "byteOffset": 1489032,
      "componentType": 5126,
      "count": 4020,
      "max": [
        0.9998826384544373,
        0.9998787641525269,
        0.9996746182441711
      ],
      "min": [
        -0.9999473690986633,
        -0.999439001083374,
        -0.9997279047966003
      ],
      "type": "VEC3"
    },
    {
      "bufferView": 3,
      "byteOffset": 960528,
      "componentType": 5126,
      "count": 4020,
      "max": [
        0.9800629019737244,
        0.9999988079071045,
        0.9983215928077698,
        1.0
      ],
      "min": [
        -0.99032062292099,
        -0.9998146891593933,
        -0.9989429712295532,
        1.0
      ],
      "type": "VEC4"
    },
    {
      "bufferView": 1,
      "byteOffset": 480264,
      "componentType": 5126,
      "count": 4020,
      "max": [
        0.9980400204658508,
        0.9483299851417542
      ],
      "min": [
        0.0019499999471008778,
        0.0019499999471008778
      ],
      "type": "VEC2"
    },
    {
      "bufferView": 0,
      "byteOffset": 1035144,
      "componentType": 5125,
      "count": 22464,
      "type": "SCALAR"
    },
    {
      "bufferView": 2,
      "byteOffset": 1537272,
      "componentType": 5126,
      "count": 5514,
      "max": [
        -0.22880999743938446,
        -0.02266079932451248,
        0.3555060029029846
      ],
      "min": [
        -0.5891649723052979,
        -0.9806470274925232,
        -0.37416499853134155
      ],
      "type": "VEC3"
    },
    {
      "bufferView": 2,
      "byteOffset": 1603440,
      "componentType": 5126,
      "count": 5514,
      "max": [
        0.9999852180480957,
        0.6593570113182068,
        0.9998194575309753
      ],
      "min": [
        -0.9999507665634155,
        -0.9346514344215393,
        -0.9892006516456604
      ],
      "type": "VEC3"
    },
    {
      "bufferView": 3,
      "byteOffset": 1024848,
      "componentType": 5126,
      "count": 5514,
      "max": [
        0.8064600229263306,
        0.9996653199195862,
        0.7807613015174866,
        1.0
      ],
      "min": [
        -0.9089427590370178,
        -0.9833894968032837,
        -0.9312204122543335,
        1.0
      ],
      "type": "VEC4"
    },
    {
      "bufferView": 1,
      "byteOffset": 512424,
      "componentType": 5126,
      "count": 5514,
      "max": [
        0.997759997844696,
        0.9995099902153015
      ],
      "min": [
        0.0004799999878741801,
        0.0004799999878741801
      ],
      "type": "VEC2"
    },
    {
      "bufferView": 0,
      "byteOffset": 1125000,
      "componentType": 5125,
      "count": 31812,
      "type": "SCALAR"
    }
  ],
  "asset": {
    "extras": {
      "author": "Andriano Milanovic (https://sketchfab.com/andriano82)",
      "license": "CC-BY-4.0 (http://creativecommons.org/licenses/by/4.0/)",
      "source": "https://sketchfab.com/3d-models/apollo-11-lunar-extravehicular-gloves-f7df16f14b6a44b49753ce349c2d646e",
      "title": "Apollo 11 Lunar Extravehicular Gloves"
    },
    "generator": "Sketchfab-12.67.0",
    "version": "2.0"
  },
  "bufferViews": [
    {
      "buffer": 0,
      "byteLength": 1252248,
      "name": "floatBufferViews",
      "target": 34963
    },
    {
      "buffer": 0,
      "byteLength": 556536,
      "byteOffset": 1252248,
      "byteStride": 8,
      "name": "floatBufferViews",
      "target": 34962
    },
    {
      "buffer": 0,
      "byteLength": 1669608,
      "byteOffset": 1808784,
      "byteStride": 12,
      "name": "floatBufferViews",
      "target": 34962
    },
    {
      "buffer": 0,
      "byteLength": 1113072,
      "byteOffset": 3478392,
      "byteStride": 16,
      "name": "floatBufferViews",
      "target": 34962
    }
  ],
  "buffers": [
    {
      "byteLength": 4591464,
      "uri": "scene.bin"
    }
  ],
  "images": [
    {
      "uri": "textures/R_D_L_LP_baseColor.jpeg"
    },
    {
      "uri": "textures/R_D_L_LP_metallicRoughness.png"
    },
    {
      "uri": "textures/R_D_L_LP_normal.png"
    },
    {
      "uri": "textures/R_D_LP_baseColor.jpeg"
    },
    {
      "uri": "textures/R_D_LP_metallicRoughness.png"
    },
    {
      "uri": "textures/R_D_LP_normal.png"
    },
    {
      "uri": "textures/Savovi_baseColor.jpeg"
    },
    {
      "uri": "textures/Savovi_metallicRoughness.png"
    },
    {
      "uri": "textures/Savovi_normal.png"
    },
    {
      "uri": "textures/R_G_LP_baseColor.jpeg"
    },
    {
      "uri": "textures/R_G_LP_metallicRoughness.png"
    },
    {
      "uri": "textures/R_G_LP_normal.png"
    },
    {
      "uri": "textures/R_L_LP_baseColor.jpeg"
    },
    {
      "uri": "textures/R_L_LP_metallicRoughness.png"
    },
    {
      "uri": "textures/R_L_LP_normal.png"
    },
    {
      "uri": "textures/R_P_LP_baseColor.jpeg"
    },
    {
      "uri": "textures/R_P_LP_metallicRoughness.png"
    },
    {
      "uri": "textures/R_P_LP_normal.png"
    }
  ],
  "materials": [
    {
      "doubleSided": true,
      "name": "R_D_L_LP",
      "normalTexture": {
        "index": 2
      },
      "occlusionTexture": {
        "index": 1
      },
      "pbrMetallicRoughness": {
        "baseColorTexture": {
          "index": 0
        },
        "metallicRoughnessTexture": {
          "index": 1
        }
      }
    },
    {
      "doubleSided": true,
      "name": "R_D_LP",
      "normalTexture": {
        "index": 5
      },
      "occlusionTexture": {
        "index": 4
      },
      "pbrMetallicRoughness": {
        "baseColorTexture": {
          "index": 3
        },
        "metallicRoughnessTexture": {
          "index": 4
        }
      }
    },
    {
      "doubleSided": true,
      "name": "Savovi",
      "normalTexture": {
        "index": 8
      },
      "occlusionTexture": {
        "index": 7
      },
      "pbrMetallicRoughness": {
        "baseColorTexture": {
          "index": 6
        },
        "metallicRoughnessTexture": {
          "index": 7
        }
      }
    },
    {
      "doubleSided": true,
      "name": "R_G_LP",
      "normalTexture": {
        "index": 11
      },
      "occlusionTexture": {
        "index": 10
      },
      "pbrMetallicRoughness": {
        "baseColorTexture": {
          "index": 9
        },
        "metallicRoughnessTexture": {
          "index": 10
        }
      }
    },
    {
      "doubleSided": true,
      "name": "R_L_LP",
      "normalTexture": {
        "index": 14
      },
      "occlusionTexture": {
        "index": 13
      },
      "pbrMetallicRoughness": {
        "baseColorTexture": {
          "index": 12
        },
        "metallicRoughnessTexture": {
          "index": 13
        }
      }
    },
    {
      "doubleSided": true,
      "name": "R_P_LP",
      "normalTexture": {
        "index": 17
      },
      "occlusionTexture": {
        "index": 16
      },
      "pbrMetallicRoughness": {
        "baseColorTexture": {
          "index": 15
        },
        "metallicRoughnessTexture": {
          "index": 16
        }
      }
    }
  ],
  "meshes": [
    {
      "name": "defaultMaterial",
      "primitives": [
        {
          "attributes": {
            "NORMAL": 1,
            "POSITION": 0,
            "TANGENT": 2,
            "TEXCOORD_0": 3
          },
          "indices": 4,
          "material": 5,
          "mode": 4
        }
      ]
    },
    {
      "name": "defaultMaterial",
      "primitives": [
        {
          "attributes": {
            "NORMAL": 6,
            "POSITION": 5,
            "TANGENT": 7,
            "TEXCOORD_0": 8
          },
          "indices": 9,
          "material": 4,
          "mode": 4
        }
      ]
    },
    {
      "name": "defaultMaterial",
      "primitives": [
        {
          "attributes": {
            "NORMAL": 11,
            "POSITION": 10,
            "TANGENT": 12,
            "TEXCOORD_0": 13
          },
          "indices": 14,
          "material": 3,
          "mode": 4
        }
      ]
    },
    {
      "name": "defaultMaterial",
      "primitives": [
        {
          "attributes": {
            "NORMAL": 16,
            "POSITION": 15,
            "TANGENT": 17,
            "TEXCOORD_0": 18
          },
          "indices": 19,
          "material": 2,
          "mode": 4
        }
      ]
    },
    {
      "name": "defaultMaterial",
      "primitives": [
        {
          "attributes": {
            "NORMAL": 21,
            "POSITION": 20,
            "TANGENT": 22,
            "TEXCOORD_0": 23
          },
          "indices": 24,
          "material": 1,
          "mode": 4
        }
      ]
    },
    {
      "name": "defaultMaterial",
      "primitives": [
        {
          "attributes": {
            "NORMAL": 26,
            "POSITION": 25,
            "TANGENT": 27,
            "TEXCOORD_0": 28
          },
          "indices": 29,
          "material": 0,
          "mode": 4
        }
      ]
    }
  ],
  "nodes": [
    {
      "children": [
        1
      ],
      "matrix": [
        0.7431055903434753,
        0.0,
        0.0,
        0.0,
        0.0,
        1.6500258722539914e-16,
        -0.7431055903434753,
        0.0,
        0.0,
        0.7431055903434753,
        1.6500258722539914e-16,
        0.0,
        0.0,
        0.0,
        0.0,
        1.0
      ],
      "name": "Sketchfab_model"
    },
    {
      "children": [
        2,
        4,
        6,
        8,
        10,
        12
      ],
      "matrix": [
        1.0,
        0.0,
        0.0,
        0.0,
        0.0,
        -4.371139006309477e-08,
        0.999999999999999,
        0.0,
        0.0,
        -0.999999999999999,
        -4.371139006309477e-08,
        0.0,
        0.0,
        0.0,
        0.0,
        1.0
      ],
      "name": "Collada visual scene group"
    },
    {
      "children": [
        3
      ],
      "name": "g"
    },
    {
      "mesh": 0,
      "name": "defaultMaterial"
    },
    {
      "children": [
        5
      ],
      "name": "g"
    },
    {
      "mesh": 1,
      "name": "defaultMaterial"
    },
    {
      "children": [
        7
      ],
      "name": "g"
    },
    {
      "mesh": 2,
      "name": "defaultMaterial"
    },
    {
      "children": [
        9
      ],
      "name": "g"
    },
    {
      "mesh": 3,
      "name": "defaultMaterial"
    },
    {
      "children": [
        11
      ],
      "name": "g"
    },
    {
      "mesh": 4,
      "name": "defaultMaterial"
    },
    {
      "children": [
        13
      ],
      "name": "g"
    },
    {
      "mesh": 5,
      "name": "defaultMaterial"
    }
  ],
  "samplers": [
    {
      "magFilter": 9729,
      "minFilter": 9987,
      "wrapS": 10497,
      "wrapT": 10497
    }
  ],
  "scene": 0,
  "scenes": [
    {
      "name": "Sketchfab_Scene",
      "nodes": [
        0
      ]
    }
  ],
  "textures": [
    {
      "sampler": 0,
      "source": 0
    },
    {
      "sampler": 0,
      "source": 1
    },
    {
      "sampler": 0,
      "source": 2
    },
    {
      "sampler": 0,
      "source": 3
    },
    {
      "sampler": 0,
      "source": 4
    },
    {
      "sampler": 0,
      "source": 5
    },
    {
      "sampler": 0,
      "source": 6
    },
    {
      "sampler": 0,
      "source": 7
    },
    {
      "sampler": 0,
      "source": 8
    },
    {
      "sampler": 0,
      "source": 9
    },
    {
      "sampler": 0,
      "source": 10
    },
    {
      "sampler": 0,
      "source": 11
    },
    {
      "sampler": 0,
      "source": 12
    },
    {
      "sampler": 0,
      "source": 13
    },
    {
      "sampler": 0,
      "source": 14
    },
    {
      "sampler": 0,
      "source": 15
    },
    {
      "sampler": 0,
      "source": 16
    },
    {
      "sampler": 0,
      "source": 17
    }
  ]
}
